<svg id="Layer_1" data-name="Layer 1" xmlns="http://www.w3.org/2000/svg" viewBox="0 0 116.65 97.81"><defs><style>.cls-1{fill:#bdccd4;stroke:#4dcfe0;stroke-miterlimit:10;}.cls-2{fill:#4dcfe0;}.cls-3{fill:#1185e0;}</style></defs><rect class="cls-1" x="16.5" y="3.31" width="96" height="91"/><rect class="cls-2" x="18.81" y="76.68" width="90.76" height="8.81"/><rect class="cls-2" x="18.83" y="13.14" width="90.76" height="8.81"/><path class="cls-3" d="M243.83,167.19H156.27c-5,0-8.81,3.05-8.81,7.05v5.64h-7.05c-2.5,0-4.41,1.53-4.41,3.53s1.91,3.53,4.41,3.53h7.05v9.28h-7.05c-2.5,0-4.41,1.53-4.41,3.53s1.91,3.53,4.41,3.53h7.05v9.29h-7.05c-2.5,0-4.41,1.52-4.41,3.52s1.91,3.53,4.41,3.53h7.05v9.29h-7.05c-2.5,0-4.41,1.53-4.41,3.52s1.91,3.53,4.41,3.53h7.05v9.29h-7.05c-2.5,0-4.41,1.53-4.41,3.53s1.91,3.52,4.41,3.52h7.05V258c0,4,3.82,7.05,8.81,7.05h87.56c5,0,8.82-3.06,8.82-7.05V174.24C252.65,170.24,248.83,167.19,243.83,167.19Zm0,90.76H156.27v-9.17h0V174.36h87.56V258Z" transform="translate(-136 -167.19)"/><path class="cls-2" d="M172.64,222a25.33,25.33,0,0,0,7.17-17.71l-2.95.4c.43,2.91.81,5.84,1.31,8.75.4,2.38,1.21,4.58,3.2,6.08a1.49,1.49,0,0,0,2-.54,69.93,69.93,0,0,0,4.21-12.05c.46-1.87-2.43-2.67-2.89-.8a66.65,66.65,0,0,1-3.91,11.34l2-.54c-1.44-1.09-1.69-3.37-1.94-5-.4-2.67-.79-5.34-1.19-8-.25-1.69-2.95-1.25-2.94.4a22.23,22.23,0,0,1-6.29,15.59c-1.35,1.39.77,3.51,2.12,2.12Z" transform="translate(-136 -167.19)"/><path class="cls-2" d="M190,214.07a1.07,1.07,0,0,1-.94-.53c0,.1,0,.09,0,0s0,.08,0,.13c.06.25.1.5.16.75l.36,1.68.7,3.31a1.5,1.5,0,1,0,2.89-.79l-.84-3.94c-.13-.62-.23-1.27-.4-1.88a2.12,2.12,0,0,0-1.95-1.69,1.5,1.5,0,0,0,0,3Z" transform="translate(-136 -167.19)"/><path class="cls-2" d="M189.57,211.73a1.5,1.5,0,0,0,0-3,1.5,1.5,0,0,0,0,3Z" transform="translate(-136 -167.19)"/><path class="cls-2" d="M195.16,207.56q1.49,7.63,3.44,15.17a1.5,1.5,0,0,0,2.89-.8q-2-7.52-3.44-15.16a1.51,1.51,0,0,0-1.84-1.05,1.53,1.53,0,0,0-1.05,1.84Z" transform="translate(-136 -167.19)"/><path class="cls-2" d="M201.77,207.17a10.78,10.78,0,0,1-3.52,8.36,1.52,1.52,0,0,0,.66,2.51,11.16,11.16,0,0,1,4.1,2.09,16.39,16.39,0,0,0,4.41,2.39c1.84.58,2.63-2.32.79-2.89a15.62,15.62,0,0,1-4-2.33,12.53,12.53,0,0,0-4.47-2.16l.66,2.51a13.69,13.69,0,0,0,4.4-10.48c-.07-1.93-3.07-1.94-3,0Z" transform="translate(-136 -167.19)"/><path class="cls-2" d="M211.19,208,214,223.91a1.51,1.51,0,0,0,1.84,1.05,1.54,1.54,0,0,0,1.05-1.85l-2.79-15.91a1.5,1.5,0,0,0-2.89.8Z" transform="translate(-136 -167.19)"/><path class="cls-2" d="M217.19,208.78c.43,3.26-1.95,5.73-4.15,7.79a1.52,1.52,0,0,0,.3,2.36,33,33,0,0,0,7.17,2.95,1.5,1.5,0,0,0,.79-2.89,30.2,30.2,0,0,1-6.45-2.65l.31,2.35c2.74-2.55,5.56-5.88,5-9.91a1.55,1.55,0,0,0-1.5-1.5c-.73,0-1.61.69-1.5,1.5Z" transform="translate(-136 -167.19)"/><path class="cls-2" d="M224.06,213.27a82,82,0,0,0,3.14,9.3,1.55,1.55,0,0,0,1.85,1.05,1.52,1.52,0,0,0,1-1.84,84.93,84.93,0,0,1-3.15-9.31,1.5,1.5,0,0,0-2.89.8Z" transform="translate(-136 -167.19)"/><path class="cls-2" d="M224.84,211.44a1.5,1.5,0,0,0,0-3,1.5,1.5,0,0,0,0,3Z" transform="translate(-136 -167.19)"/></svg>